M48
; DRILL file {KiCad 9.0.1} date 2026-08-10T21:42:39+0200
; FORMAT={-:-/ absolute / metric / decimal}
; #@! TF.CreationDate,2026-08-10T21:42:39+02:00
; #@! TF.GenerationSoftware,Kicad,Pcbnew,9.0.1
; #@! TF.FileFunction,Plated,1,2,PTH
FMAT,2
METRIC
; #@! TA.AperFunction,Plated,PTH,ViaDrill
T1C0.300
; #@! TA.AperFunction,Plated,PTH,ComponentDrill
T2C0.900
; #@! TA.AperFunction,Plated,PTH,ComponentDrill
T3C1.000
; #@! TA.AperFunction,Plated,PTH,ComponentDrill
T4C1.520
%
G90
G05
T1
X30.16Y-13.0
X30.16Y-17.0
X45.0Y-22.0
X60.16Y-13.0
X60.16Y-17.0
X80.0Y-37.54
X82.0Y-40.08
X82.0Y-65.0
X84.0Y-42.62
X86.0Y-35.0
X90.16Y-13.0
X90.16Y-17.0
X105.0Y-22.0
X120.16Y-13.0
X120.16Y-17.0
T2
X142.94Y-78.46
X143.96Y-81.0
X144.98Y-78.46
X146.0Y-81.0
T3
X60.0Y-35.0
X60.0Y-37.54
X60.0Y-40.08
X60.0Y-42.62
X95.0Y-35.0
X95.0Y-37.54
X95.0Y-40.08
X95.0Y-42.62
T4
X20.0Y-10.0
X25.08Y-10.0
X30.16Y-10.0
X50.0Y-10.0
X55.08Y-10.0
X60.16Y-10.0
X80.0Y-10.0
X85.08Y-10.0
X90.16Y-10.0
X110.0Y-10.0
X115.08Y-10.0
X120.16Y-10.0
M30
