%TF.GenerationSoftware,KiCad,Pcbnew,9.0.1*%
%TF.CreationDate,2026-08-09T13:21:54+02:00*%
%TF.ProjectId,keg_sensor_module,6b65675f-7365-46e7-936f-725f6d6f6475,rev?*%
%TF.SameCoordinates,Original*%
%TF.FileFunction,Copper,L1,Top*%
%TF.FilePolarity,Positive*%
%FSLAX46Y46*%
G04 Gerber Fmt 4.6, Leading zero omitted, Abs format (unit mm)*
G04 Created by KiCad (PCBNEW 9.0.1) date 2026-08-09 13:21:54*
%MOMM*%
%LPD*%
G01*
G04 APERTURE LIST*
%TA.AperFunction,ComponentPad*%
%ADD10R,3.000000X3.000000*%
%TD*%
%TA.AperFunction,ComponentPad*%
%ADD11C,3.000000*%
%TD*%
%TA.AperFunction,ComponentPad*%
%ADD12R,1.700000X1.700000*%
%TD*%
%TA.AperFunction,ComponentPad*%
%ADD13C,1.700000*%
%TD*%
%TA.AperFunction,ComponentPad*%
%ADD14R,1.500000X1.500000*%
%TD*%
%TA.AperFunction,ComponentPad*%
%ADD15C,1.500000*%
%TD*%
%TA.AperFunction,ViaPad*%
%ADD16C,0.600000*%
%TD*%
%TA.AperFunction,Conductor*%
%ADD17C,0.300000*%
%TD*%
G04 APERTURE END LIST*
D10*
%TO.P,J1,1*%
%TO.N,EXC_POS*%
X10000000Y-15000000D03*
D11*
%TO.P,J1,2*%
%TO.N,EXC_NEG*%
X15080000Y-15000000D03*
%TO.P,J1,3*%
%TO.N,SIG_POS*%
X20160000Y-15000000D03*
%TD*%
D10*
%TO.P,J3,1*%
%TO.N,EXC_POS*%
X10000000Y-35000000D03*
D11*
%TO.P,J3,2*%
%TO.N,EXC_NEG*%
X15080000Y-35000000D03*
%TO.P,J3,3*%
%TO.N,SIG_POS*%
X20160000Y-35000000D03*
%TD*%
D10*
%TO.P,J2,1*%
%TO.N,EXC_POS*%
X10000000Y-55000000D03*
D11*
%TO.P,J2,2*%
%TO.N,EXC_NEG*%
X15080000Y-55000000D03*
%TO.P,J2,3*%
%TO.N,SIG_NEG*%
X20160000Y-55000000D03*
%TD*%
D10*
%TO.P,J4,1*%
%TO.N,EXC_POS*%
X10000000Y-75000000D03*
D11*
%TO.P,J4,2*%
%TO.N,EXC_NEG*%
X15080000Y-75000000D03*
%TO.P,J4,3*%
%TO.N,SIG_NEG*%
X20160000Y-75000000D03*
%TD*%
D12*
%TO.P,J5,1*%
%TO.N,EXC_POS*%
X60000000Y-35000000D03*
D13*
%TO.P,J5,2*%
%TO.N,EXC_NEG*%
X60000000Y-37540000D03*
%TO.P,J5,3*%
%TO.N,SIG_POS*%
X60000000Y-40080000D03*
%TO.P,J5,4*%
%TO.N,SIG_NEG*%
X60000000Y-42620000D03*
%TD*%
D12*
%TO.P,J6,1*%
%TO.N,GND*%
X95000000Y-35000000D03*
D13*
%TO.P,J6,2*%
%TO.N,DT*%
X95000000Y-37540000D03*
%TO.P,J6,3*%
%TO.N,SCK*%
X95000000Y-40080000D03*
%TO.P,J6,4*%
%TO.N,VCC_3V3*%
X95000000Y-42620000D03*
%TD*%
D14*
%TO.P,J7,1*%
%TO.N,GND*%
X146000000Y-35000000D03*
D15*
%TO.P,J7,2*%
%TO.N,VCC_3V3*%
X143460000Y-36020000D03*
%TO.P,J7,3*%
%TO.N,SCK*%
X146000000Y-37040000D03*
%TO.P,J7,4*%
%TO.N,DT*%
X143460000Y-38060000D03*
%TD*%
D16*
%TO.N,EXC_POS*%
X10000000Y-20000000D03*
%TO.N,EXC_NEG*%
X15080000Y-30000000D03*
%TO.N,SIG_POS*%
X20160000Y-32000000D03*
%TO.N,SIG_NEG*%
X20160000Y-60000000D03*
%TO.N,GND*%
X97000000Y-35000000D03*
%TO.N,SCK*%
X99000000Y-40080000D03*
%TO.N,DT*%
X101000000Y-37540000D03*
%TO.N,VCC_3V3*%
X93000000Y-42620000D03*
X143460000Y-12000000D03*
%TD*%
D17*
%TO.N,EXC_POS*%
X10000000Y-15000000D02*
X10000000Y-75000000D01*
%TO.N,EXC_NEG*%
X15080000Y-15000000D02*
X15080000Y-75000000D01*
%TO.N,SIG_POS*%
X20160000Y-15000000D02*
X20160000Y-35000000D01*
%TO.N,SIG_NEG*%
X20160000Y-55000000D02*
X20160000Y-75000000D01*
%TO.N,GND*%
X95000000Y-35000000D02*
X97000000Y-35000000D01*
%TO.N,SCK*%
X95000000Y-40080000D02*
X99000000Y-40080000D01*
%TO.N,DT*%
X95000000Y-37540000D02*
X101000000Y-37540000D01*
%TO.N,VCC_3V3*%
X95000000Y-42620000D02*
X93000000Y-42620000D01*
X143460000Y-12000000D02*
X143460000Y-36020000D01*
%TD*%
M02*
