%TF.GenerationSoftware,KiCad,Pcbnew,9.0.1*%
%TF.CreationDate,2026-08-10T22:28:10+02:00*%
%TF.ProjectId,keg_sensor_module,6b65675f-7365-46e7-936f-725f6d6f6475,rev?*%
%TF.SameCoordinates,Original*%
%TF.FileFunction,Legend,Top*%
%TF.FilePolarity,Positive*%
%FSLAX46Y46*%
G04 Gerber Fmt 4.6, Leading zero omitted, Abs format (unit mm)*
G04 Created by KiCad (PCBNEW 9.0.1) date 2026-08-10 22:28:10*
%MOMM*%
%LPD*%
G01*
G04 APERTURE LIST*
%ADD10C,0.150000*%
%ADD11C,0.135000*%
%ADD12C,0.330000*%
%ADD13C,0.180000*%
%ADD14C,0.225000*%
%ADD15C,0.120000*%
G04 APERTURE END LIST*
D10*
X20309523Y-3454819D02*
X19976190Y-2978628D01*
X19738095Y-3454819D02*
X19738095Y-2454819D01*
X19738095Y-2454819D02*
X20119047Y-2454819D01*
X20119047Y-2454819D02*
X20214285Y-2502438D01*
X20214285Y-2502438D02*
X20261904Y-2550057D01*
X20261904Y-2550057D02*
X20309523Y-2645295D01*
X20309523Y-2645295D02*
X20309523Y-2788152D01*
X20309523Y-2788152D02*
X20261904Y-2883390D01*
X20261904Y-2883390D02*
X20214285Y-2931009D01*
X20214285Y-2931009D02*
X20119047Y-2978628D01*
X20119047Y-2978628D02*
X19738095Y-2978628D01*
X25151428Y-2931009D02*
X25294285Y-2978628D01*
X25294285Y-2978628D02*
X25341904Y-3026247D01*
X25341904Y-3026247D02*
X25389523Y-3121485D01*
X25389523Y-3121485D02*
X25389523Y-3264342D01*
X25389523Y-3264342D02*
X25341904Y-3359580D01*
X25341904Y-3359580D02*
X25294285Y-3407200D01*
X25294285Y-3407200D02*
X25199047Y-3454819D01*
X25199047Y-3454819D02*
X24818095Y-3454819D01*
X24818095Y-3454819D02*
X24818095Y-2454819D01*
X24818095Y-2454819D02*
X25151428Y-2454819D01*
X25151428Y-2454819D02*
X25246666Y-2502438D01*
X25246666Y-2502438D02*
X25294285Y-2550057D01*
X25294285Y-2550057D02*
X25341904Y-2645295D01*
X25341904Y-2645295D02*
X25341904Y-2740533D01*
X25341904Y-2740533D02*
X25294285Y-2835771D01*
X25294285Y-2835771D02*
X25246666Y-2883390D01*
X25246666Y-2883390D02*
X25151428Y-2931009D01*
X25151428Y-2931009D02*
X24818095Y-2931009D01*
X29731429Y-2454819D02*
X29969524Y-3454819D01*
X29969524Y-3454819D02*
X30160000Y-2740533D01*
X30160000Y-2740533D02*
X30350476Y-3454819D01*
X30350476Y-3454819D02*
X30588572Y-2454819D01*
X50309523Y-3454819D02*
X49976190Y-2978628D01*
X49738095Y-3454819D02*
X49738095Y-2454819D01*
X49738095Y-2454819D02*
X50119047Y-2454819D01*
X50119047Y-2454819D02*
X50214285Y-2502438D01*
X50214285Y-2502438D02*
X50261904Y-2550057D01*
X50261904Y-2550057D02*
X50309523Y-2645295D01*
X50309523Y-2645295D02*
X50309523Y-2788152D01*
X50309523Y-2788152D02*
X50261904Y-2883390D01*
X50261904Y-2883390D02*
X50214285Y-2931009D01*
X50214285Y-2931009D02*
X50119047Y-2978628D01*
X50119047Y-2978628D02*
X49738095Y-2978628D01*
X55151428Y-2931009D02*
X55294285Y-2978628D01*
X55294285Y-2978628D02*
X55341904Y-3026247D01*
X55341904Y-3026247D02*
X55389523Y-3121485D01*
X55389523Y-3121485D02*
X55389523Y-3264342D01*
X55389523Y-3264342D02*
X55341904Y-3359580D01*
X55341904Y-3359580D02*
X55294285Y-3407200D01*
X55294285Y-3407200D02*
X55199047Y-3454819D01*
X55199047Y-3454819D02*
X54818095Y-3454819D01*
X54818095Y-3454819D02*
X54818095Y-2454819D01*
X54818095Y-2454819D02*
X55151428Y-2454819D01*
X55151428Y-2454819D02*
X55246666Y-2502438D01*
X55246666Y-2502438D02*
X55294285Y-2550057D01*
X55294285Y-2550057D02*
X55341904Y-2645295D01*
X55341904Y-2645295D02*
X55341904Y-2740533D01*
X55341904Y-2740533D02*
X55294285Y-2835771D01*
X55294285Y-2835771D02*
X55246666Y-2883390D01*
X55246666Y-2883390D02*
X55151428Y-2931009D01*
X55151428Y-2931009D02*
X54818095Y-2931009D01*
X59731429Y-2454819D02*
X59969524Y-3454819D01*
X59969524Y-3454819D02*
X60160000Y-2740533D01*
X60160000Y-2740533D02*
X60350476Y-3454819D01*
X60350476Y-3454819D02*
X60588572Y-2454819D01*
X80309523Y-3454819D02*
X79976190Y-2978628D01*
X79738095Y-3454819D02*
X79738095Y-2454819D01*
X79738095Y-2454819D02*
X80119047Y-2454819D01*
X80119047Y-2454819D02*
X80214285Y-2502438D01*
X80214285Y-2502438D02*
X80261904Y-2550057D01*
X80261904Y-2550057D02*
X80309523Y-2645295D01*
X80309523Y-2645295D02*
X80309523Y-2788152D01*
X80309523Y-2788152D02*
X80261904Y-2883390D01*
X80261904Y-2883390D02*
X80214285Y-2931009D01*
X80214285Y-2931009D02*
X80119047Y-2978628D01*
X80119047Y-2978628D02*
X79738095Y-2978628D01*
X85151428Y-2931009D02*
X85294285Y-2978628D01*
X85294285Y-2978628D02*
X85341904Y-3026247D01*
X85341904Y-3026247D02*
X85389523Y-3121485D01*
X85389523Y-3121485D02*
X85389523Y-3264342D01*
X85389523Y-3264342D02*
X85341904Y-3359580D01*
X85341904Y-3359580D02*
X85294285Y-3407200D01*
X85294285Y-3407200D02*
X85199047Y-3454819D01*
X85199047Y-3454819D02*
X84818095Y-3454819D01*
X84818095Y-3454819D02*
X84818095Y-2454819D01*
X84818095Y-2454819D02*
X85151428Y-2454819D01*
X85151428Y-2454819D02*
X85246666Y-2502438D01*
X85246666Y-2502438D02*
X85294285Y-2550057D01*
X85294285Y-2550057D02*
X85341904Y-2645295D01*
X85341904Y-2645295D02*
X85341904Y-2740533D01*
X85341904Y-2740533D02*
X85294285Y-2835771D01*
X85294285Y-2835771D02*
X85246666Y-2883390D01*
X85246666Y-2883390D02*
X85151428Y-2931009D01*
X85151428Y-2931009D02*
X84818095Y-2931009D01*
X89731429Y-2454819D02*
X89969524Y-3454819D01*
X89969524Y-3454819D02*
X90160000Y-2740533D01*
X90160000Y-2740533D02*
X90350476Y-3454819D01*
X90350476Y-3454819D02*
X90588572Y-2454819D01*
X110309523Y-3454819D02*
X109976190Y-2978628D01*
X109738095Y-3454819D02*
X109738095Y-2454819D01*
X109738095Y-2454819D02*
X110119047Y-2454819D01*
X110119047Y-2454819D02*
X110214285Y-2502438D01*
X110214285Y-2502438D02*
X110261904Y-2550057D01*
X110261904Y-2550057D02*
X110309523Y-2645295D01*
X110309523Y-2645295D02*
X110309523Y-2788152D01*
X110309523Y-2788152D02*
X110261904Y-2883390D01*
X110261904Y-2883390D02*
X110214285Y-2931009D01*
X110214285Y-2931009D02*
X110119047Y-2978628D01*
X110119047Y-2978628D02*
X109738095Y-2978628D01*
X115151428Y-2931009D02*
X115294285Y-2978628D01*
X115294285Y-2978628D02*
X115341904Y-3026247D01*
X115341904Y-3026247D02*
X115389523Y-3121485D01*
X115389523Y-3121485D02*
X115389523Y-3264342D01*
X115389523Y-3264342D02*
X115341904Y-3359580D01*
X115341904Y-3359580D02*
X115294285Y-3407200D01*
X115294285Y-3407200D02*
X115199047Y-3454819D01*
X115199047Y-3454819D02*
X114818095Y-3454819D01*
X114818095Y-3454819D02*
X114818095Y-2454819D01*
X114818095Y-2454819D02*
X115151428Y-2454819D01*
X115151428Y-2454819D02*
X115246666Y-2502438D01*
X115246666Y-2502438D02*
X115294285Y-2550057D01*
X115294285Y-2550057D02*
X115341904Y-2645295D01*
X115341904Y-2645295D02*
X115341904Y-2740533D01*
X115341904Y-2740533D02*
X115294285Y-2835771D01*
X115294285Y-2835771D02*
X115246666Y-2883390D01*
X115246666Y-2883390D02*
X115151428Y-2931009D01*
X115151428Y-2931009D02*
X114818095Y-2931009D01*
X119731429Y-2454819D02*
X119969524Y-3454819D01*
X119969524Y-3454819D02*
X120160000Y-2740533D01*
X120160000Y-2740533D02*
X120350476Y-3454819D01*
X120350476Y-3454819D02*
X120588572Y-2454819D01*
D11*
X56249999Y-34937908D02*
X56549999Y-34937908D01*
X56678571Y-35409337D02*
X56249999Y-35409337D01*
X56249999Y-35409337D02*
X56249999Y-34509337D01*
X56249999Y-34509337D02*
X56678571Y-34509337D01*
X57064285Y-35066480D02*
X57750000Y-35066480D01*
X57407142Y-35409337D02*
X57407142Y-34723622D01*
X56249999Y-37477908D02*
X56549999Y-37477908D01*
X56678571Y-37949337D02*
X56249999Y-37949337D01*
X56249999Y-37949337D02*
X56249999Y-37049337D01*
X56249999Y-37049337D02*
X56678571Y-37049337D01*
X57064285Y-37606480D02*
X57750000Y-37606480D01*
X56228571Y-40232194D02*
X56657143Y-40232194D01*
X56142857Y-40489337D02*
X56442857Y-39589337D01*
X56442857Y-39589337D02*
X56742857Y-40489337D01*
X57042857Y-40146480D02*
X57728572Y-40146480D01*
X57385714Y-40489337D02*
X57385714Y-39803622D01*
X56228571Y-42772194D02*
X56657143Y-42772194D01*
X56142857Y-43029337D02*
X56442857Y-42129337D01*
X56442857Y-42129337D02*
X56742857Y-43029337D01*
X57042857Y-42686480D02*
X57728572Y-42686480D01*
X98814286Y-34552194D02*
X98728572Y-34509337D01*
X98728572Y-34509337D02*
X98600000Y-34509337D01*
X98600000Y-34509337D02*
X98471429Y-34552194D01*
X98471429Y-34552194D02*
X98385714Y-34637908D01*
X98385714Y-34637908D02*
X98342857Y-34723622D01*
X98342857Y-34723622D02*
X98300000Y-34895051D01*
X98300000Y-34895051D02*
X98300000Y-35023622D01*
X98300000Y-35023622D02*
X98342857Y-35195051D01*
X98342857Y-35195051D02*
X98385714Y-35280765D01*
X98385714Y-35280765D02*
X98471429Y-35366480D01*
X98471429Y-35366480D02*
X98600000Y-35409337D01*
X98600000Y-35409337D02*
X98685714Y-35409337D01*
X98685714Y-35409337D02*
X98814286Y-35366480D01*
X98814286Y-35366480D02*
X98857143Y-35323622D01*
X98857143Y-35323622D02*
X98857143Y-35023622D01*
X98857143Y-35023622D02*
X98685714Y-35023622D01*
X99242857Y-35409337D02*
X99242857Y-34509337D01*
X99242857Y-34509337D02*
X99757143Y-35409337D01*
X99757143Y-35409337D02*
X99757143Y-34509337D01*
X100185714Y-35409337D02*
X100185714Y-34509337D01*
X100185714Y-34509337D02*
X100400000Y-34509337D01*
X100400000Y-34509337D02*
X100528571Y-34552194D01*
X100528571Y-34552194D02*
X100614286Y-34637908D01*
X100614286Y-34637908D02*
X100657143Y-34723622D01*
X100657143Y-34723622D02*
X100700000Y-34895051D01*
X100700000Y-34895051D02*
X100700000Y-35023622D01*
X100700000Y-35023622D02*
X100657143Y-35195051D01*
X100657143Y-35195051D02*
X100614286Y-35280765D01*
X100614286Y-35280765D02*
X100528571Y-35366480D01*
X100528571Y-35366480D02*
X100400000Y-35409337D01*
X100400000Y-35409337D02*
X100185714Y-35409337D01*
X98921428Y-37949337D02*
X98921428Y-37049337D01*
X98921428Y-37049337D02*
X99135714Y-37049337D01*
X99135714Y-37049337D02*
X99264285Y-37092194D01*
X99264285Y-37092194D02*
X99350000Y-37177908D01*
X99350000Y-37177908D02*
X99392857Y-37263622D01*
X99392857Y-37263622D02*
X99435714Y-37435051D01*
X99435714Y-37435051D02*
X99435714Y-37563622D01*
X99435714Y-37563622D02*
X99392857Y-37735051D01*
X99392857Y-37735051D02*
X99350000Y-37820765D01*
X99350000Y-37820765D02*
X99264285Y-37906480D01*
X99264285Y-37906480D02*
X99135714Y-37949337D01*
X99135714Y-37949337D02*
X98921428Y-37949337D01*
X99692857Y-37049337D02*
X100207143Y-37049337D01*
X99950000Y-37949337D02*
X99950000Y-37049337D01*
X98342857Y-40446480D02*
X98471429Y-40489337D01*
X98471429Y-40489337D02*
X98685714Y-40489337D01*
X98685714Y-40489337D02*
X98771429Y-40446480D01*
X98771429Y-40446480D02*
X98814286Y-40403622D01*
X98814286Y-40403622D02*
X98857143Y-40317908D01*
X98857143Y-40317908D02*
X98857143Y-40232194D01*
X98857143Y-40232194D02*
X98814286Y-40146480D01*
X98814286Y-40146480D02*
X98771429Y-40103622D01*
X98771429Y-40103622D02*
X98685714Y-40060765D01*
X98685714Y-40060765D02*
X98514286Y-40017908D01*
X98514286Y-40017908D02*
X98428571Y-39975051D01*
X98428571Y-39975051D02*
X98385714Y-39932194D01*
X98385714Y-39932194D02*
X98342857Y-39846480D01*
X98342857Y-39846480D02*
X98342857Y-39760765D01*
X98342857Y-39760765D02*
X98385714Y-39675051D01*
X98385714Y-39675051D02*
X98428571Y-39632194D01*
X98428571Y-39632194D02*
X98514286Y-39589337D01*
X98514286Y-39589337D02*
X98728571Y-39589337D01*
X98728571Y-39589337D02*
X98857143Y-39632194D01*
X99757143Y-40403622D02*
X99714286Y-40446480D01*
X99714286Y-40446480D02*
X99585714Y-40489337D01*
X99585714Y-40489337D02*
X99500000Y-40489337D01*
X99500000Y-40489337D02*
X99371429Y-40446480D01*
X99371429Y-40446480D02*
X99285714Y-40360765D01*
X99285714Y-40360765D02*
X99242857Y-40275051D01*
X99242857Y-40275051D02*
X99200000Y-40103622D01*
X99200000Y-40103622D02*
X99200000Y-39975051D01*
X99200000Y-39975051D02*
X99242857Y-39803622D01*
X99242857Y-39803622D02*
X99285714Y-39717908D01*
X99285714Y-39717908D02*
X99371429Y-39632194D01*
X99371429Y-39632194D02*
X99500000Y-39589337D01*
X99500000Y-39589337D02*
X99585714Y-39589337D01*
X99585714Y-39589337D02*
X99714286Y-39632194D01*
X99714286Y-39632194D02*
X99757143Y-39675051D01*
X100142857Y-40489337D02*
X100142857Y-39589337D01*
X100657143Y-40489337D02*
X100271429Y-39975051D01*
X100657143Y-39589337D02*
X100142857Y-40103622D01*
X98300000Y-42129337D02*
X98600000Y-43029337D01*
X98600000Y-43029337D02*
X98900000Y-42129337D01*
X99714286Y-42943622D02*
X99671429Y-42986480D01*
X99671429Y-42986480D02*
X99542857Y-43029337D01*
X99542857Y-43029337D02*
X99457143Y-43029337D01*
X99457143Y-43029337D02*
X99328572Y-42986480D01*
X99328572Y-42986480D02*
X99242857Y-42900765D01*
X99242857Y-42900765D02*
X99200000Y-42815051D01*
X99200000Y-42815051D02*
X99157143Y-42643622D01*
X99157143Y-42643622D02*
X99157143Y-42515051D01*
X99157143Y-42515051D02*
X99200000Y-42343622D01*
X99200000Y-42343622D02*
X99242857Y-42257908D01*
X99242857Y-42257908D02*
X99328572Y-42172194D01*
X99328572Y-42172194D02*
X99457143Y-42129337D01*
X99457143Y-42129337D02*
X99542857Y-42129337D01*
X99542857Y-42129337D02*
X99671429Y-42172194D01*
X99671429Y-42172194D02*
X99714286Y-42215051D01*
X100614286Y-42943622D02*
X100571429Y-42986480D01*
X100571429Y-42986480D02*
X100442857Y-43029337D01*
X100442857Y-43029337D02*
X100357143Y-43029337D01*
X100357143Y-43029337D02*
X100228572Y-42986480D01*
X100228572Y-42986480D02*
X100142857Y-42900765D01*
X100142857Y-42900765D02*
X100100000Y-42815051D01*
X100100000Y-42815051D02*
X100057143Y-42643622D01*
X100057143Y-42643622D02*
X100057143Y-42515051D01*
X100057143Y-42515051D02*
X100100000Y-42343622D01*
X100100000Y-42343622D02*
X100142857Y-42257908D01*
X100142857Y-42257908D02*
X100228572Y-42172194D01*
X100228572Y-42172194D02*
X100357143Y-42129337D01*
X100357143Y-42129337D02*
X100442857Y-42129337D01*
X100442857Y-42129337D02*
X100571429Y-42172194D01*
X100571429Y-42172194D02*
X100614286Y-42215051D01*
D12*
X91933334Y-59000601D02*
X91933334Y-56800601D01*
X93190477Y-59000601D02*
X92247620Y-57743459D01*
X93190477Y-56800601D02*
X91933334Y-58057744D01*
X94971429Y-58895840D02*
X94761905Y-59000601D01*
X94761905Y-59000601D02*
X94342858Y-59000601D01*
X94342858Y-59000601D02*
X94133334Y-58895840D01*
X94133334Y-58895840D02*
X94028572Y-58686316D01*
X94028572Y-58686316D02*
X94028572Y-57848220D01*
X94028572Y-57848220D02*
X94133334Y-57638697D01*
X94133334Y-57638697D02*
X94342858Y-57533935D01*
X94342858Y-57533935D02*
X94761905Y-57533935D01*
X94761905Y-57533935D02*
X94971429Y-57638697D01*
X94971429Y-57638697D02*
X95076191Y-57848220D01*
X95076191Y-57848220D02*
X95076191Y-58057744D01*
X95076191Y-58057744D02*
X94028572Y-58267268D01*
X96961905Y-57533935D02*
X96961905Y-59314887D01*
X96961905Y-59314887D02*
X96857143Y-59524411D01*
X96857143Y-59524411D02*
X96752381Y-59629173D01*
X96752381Y-59629173D02*
X96542858Y-59733935D01*
X96542858Y-59733935D02*
X96228572Y-59733935D01*
X96228572Y-59733935D02*
X96019048Y-59629173D01*
X96961905Y-58895840D02*
X96752381Y-59000601D01*
X96752381Y-59000601D02*
X96333334Y-59000601D01*
X96333334Y-59000601D02*
X96123810Y-58895840D01*
X96123810Y-58895840D02*
X96019048Y-58791078D01*
X96019048Y-58791078D02*
X95914286Y-58581554D01*
X95914286Y-58581554D02*
X95914286Y-57952982D01*
X95914286Y-57952982D02*
X96019048Y-57743459D01*
X96019048Y-57743459D02*
X96123810Y-57638697D01*
X96123810Y-57638697D02*
X96333334Y-57533935D01*
X96333334Y-57533935D02*
X96752381Y-57533935D01*
X96752381Y-57533935D02*
X96961905Y-57638697D01*
X97904762Y-58895840D02*
X98219048Y-59000601D01*
X98219048Y-59000601D02*
X98742857Y-59000601D01*
X98742857Y-59000601D02*
X98952381Y-58895840D01*
X98952381Y-58895840D02*
X99057143Y-58791078D01*
X99057143Y-58791078D02*
X99161905Y-58581554D01*
X99161905Y-58581554D02*
X99161905Y-58372030D01*
X99161905Y-58372030D02*
X99057143Y-58162506D01*
X99057143Y-58162506D02*
X98952381Y-58057744D01*
X98952381Y-58057744D02*
X98742857Y-57952982D01*
X98742857Y-57952982D02*
X98323810Y-57848220D01*
X98323810Y-57848220D02*
X98114286Y-57743459D01*
X98114286Y-57743459D02*
X98009524Y-57638697D01*
X98009524Y-57638697D02*
X97904762Y-57429173D01*
X97904762Y-57429173D02*
X97904762Y-57219649D01*
X97904762Y-57219649D02*
X98009524Y-57010125D01*
X98009524Y-57010125D02*
X98114286Y-56905363D01*
X98114286Y-56905363D02*
X98323810Y-56800601D01*
X98323810Y-56800601D02*
X98847619Y-56800601D01*
X98847619Y-56800601D02*
X99161905Y-56905363D01*
X100942857Y-58895840D02*
X100733333Y-59000601D01*
X100733333Y-59000601D02*
X100314286Y-59000601D01*
X100314286Y-59000601D02*
X100104762Y-58895840D01*
X100104762Y-58895840D02*
X100000000Y-58686316D01*
X100000000Y-58686316D02*
X100000000Y-57848220D01*
X100000000Y-57848220D02*
X100104762Y-57638697D01*
X100104762Y-57638697D02*
X100314286Y-57533935D01*
X100314286Y-57533935D02*
X100733333Y-57533935D01*
X100733333Y-57533935D02*
X100942857Y-57638697D01*
X100942857Y-57638697D02*
X101047619Y-57848220D01*
X101047619Y-57848220D02*
X101047619Y-58057744D01*
X101047619Y-58057744D02*
X100000000Y-58267268D01*
X101990476Y-57533935D02*
X101990476Y-59000601D01*
X101990476Y-57743459D02*
X102095238Y-57638697D01*
X102095238Y-57638697D02*
X102304762Y-57533935D01*
X102304762Y-57533935D02*
X102619047Y-57533935D01*
X102619047Y-57533935D02*
X102828571Y-57638697D01*
X102828571Y-57638697D02*
X102933333Y-57848220D01*
X102933333Y-57848220D02*
X102933333Y-59000601D01*
X103876190Y-58895840D02*
X104085714Y-59000601D01*
X104085714Y-59000601D02*
X104504762Y-59000601D01*
X104504762Y-59000601D02*
X104714285Y-58895840D01*
X104714285Y-58895840D02*
X104819047Y-58686316D01*
X104819047Y-58686316D02*
X104819047Y-58581554D01*
X104819047Y-58581554D02*
X104714285Y-58372030D01*
X104714285Y-58372030D02*
X104504762Y-58267268D01*
X104504762Y-58267268D02*
X104190476Y-58267268D01*
X104190476Y-58267268D02*
X103980952Y-58162506D01*
X103980952Y-58162506D02*
X103876190Y-57952982D01*
X103876190Y-57952982D02*
X103876190Y-57848220D01*
X103876190Y-57848220D02*
X103980952Y-57638697D01*
X103980952Y-57638697D02*
X104190476Y-57533935D01*
X104190476Y-57533935D02*
X104504762Y-57533935D01*
X104504762Y-57533935D02*
X104714285Y-57638697D01*
X106076190Y-59000601D02*
X105866666Y-58895840D01*
X105866666Y-58895840D02*
X105761904Y-58791078D01*
X105761904Y-58791078D02*
X105657142Y-58581554D01*
X105657142Y-58581554D02*
X105657142Y-57952982D01*
X105657142Y-57952982D02*
X105761904Y-57743459D01*
X105761904Y-57743459D02*
X105866666Y-57638697D01*
X105866666Y-57638697D02*
X106076190Y-57533935D01*
X106076190Y-57533935D02*
X106390475Y-57533935D01*
X106390475Y-57533935D02*
X106599999Y-57638697D01*
X106599999Y-57638697D02*
X106704761Y-57743459D01*
X106704761Y-57743459D02*
X106809523Y-57952982D01*
X106809523Y-57952982D02*
X106809523Y-58581554D01*
X106809523Y-58581554D02*
X106704761Y-58791078D01*
X106704761Y-58791078D02*
X106599999Y-58895840D01*
X106599999Y-58895840D02*
X106390475Y-59000601D01*
X106390475Y-59000601D02*
X106076190Y-59000601D01*
X107752380Y-59000601D02*
X107752380Y-57533935D01*
X107752380Y-57952982D02*
X107857142Y-57743459D01*
X107857142Y-57743459D02*
X107961904Y-57638697D01*
X107961904Y-57638697D02*
X108171428Y-57533935D01*
X108171428Y-57533935D02*
X108380951Y-57533935D01*
D13*
X91428573Y-62488640D02*
X91600002Y-62545782D01*
X91600002Y-62545782D02*
X91885716Y-62545782D01*
X91885716Y-62545782D02*
X92000002Y-62488640D01*
X92000002Y-62488640D02*
X92057144Y-62431497D01*
X92057144Y-62431497D02*
X92114287Y-62317211D01*
X92114287Y-62317211D02*
X92114287Y-62202925D01*
X92114287Y-62202925D02*
X92057144Y-62088640D01*
X92057144Y-62088640D02*
X92000002Y-62031497D01*
X92000002Y-62031497D02*
X91885716Y-61974354D01*
X91885716Y-61974354D02*
X91657144Y-61917211D01*
X91657144Y-61917211D02*
X91542859Y-61860068D01*
X91542859Y-61860068D02*
X91485716Y-61802925D01*
X91485716Y-61802925D02*
X91428573Y-61688640D01*
X91428573Y-61688640D02*
X91428573Y-61574354D01*
X91428573Y-61574354D02*
X91485716Y-61460068D01*
X91485716Y-61460068D02*
X91542859Y-61402925D01*
X91542859Y-61402925D02*
X91657144Y-61345782D01*
X91657144Y-61345782D02*
X91942859Y-61345782D01*
X91942859Y-61345782D02*
X92114287Y-61402925D01*
X93142859Y-62545782D02*
X93142859Y-61917211D01*
X93142859Y-61917211D02*
X93085716Y-61802925D01*
X93085716Y-61802925D02*
X92971430Y-61745782D01*
X92971430Y-61745782D02*
X92742859Y-61745782D01*
X92742859Y-61745782D02*
X92628573Y-61802925D01*
X93142859Y-62488640D02*
X93028573Y-62545782D01*
X93028573Y-62545782D02*
X92742859Y-62545782D01*
X92742859Y-62545782D02*
X92628573Y-62488640D01*
X92628573Y-62488640D02*
X92571430Y-62374354D01*
X92571430Y-62374354D02*
X92571430Y-62260068D01*
X92571430Y-62260068D02*
X92628573Y-62145782D01*
X92628573Y-62145782D02*
X92742859Y-62088640D01*
X92742859Y-62088640D02*
X93028573Y-62088640D01*
X93028573Y-62088640D02*
X93142859Y-62031497D01*
X93885715Y-62545782D02*
X93771430Y-62488640D01*
X93771430Y-62488640D02*
X93714287Y-62374354D01*
X93714287Y-62374354D02*
X93714287Y-61345782D01*
X94514286Y-62545782D02*
X94400001Y-62488640D01*
X94400001Y-62488640D02*
X94342858Y-62374354D01*
X94342858Y-62374354D02*
X94342858Y-61345782D01*
X95485715Y-62545782D02*
X95485715Y-61917211D01*
X95485715Y-61917211D02*
X95428572Y-61802925D01*
X95428572Y-61802925D02*
X95314286Y-61745782D01*
X95314286Y-61745782D02*
X95085715Y-61745782D01*
X95085715Y-61745782D02*
X94971429Y-61802925D01*
X95485715Y-62488640D02*
X95371429Y-62545782D01*
X95371429Y-62545782D02*
X95085715Y-62545782D01*
X95085715Y-62545782D02*
X94971429Y-62488640D01*
X94971429Y-62488640D02*
X94914286Y-62374354D01*
X94914286Y-62374354D02*
X94914286Y-62260068D01*
X94914286Y-62260068D02*
X94971429Y-62145782D01*
X94971429Y-62145782D02*
X95085715Y-62088640D01*
X95085715Y-62088640D02*
X95371429Y-62088640D01*
X95371429Y-62088640D02*
X95485715Y-62031497D01*
X96571429Y-61745782D02*
X96571429Y-62545782D01*
X96057143Y-61745782D02*
X96057143Y-62374354D01*
X96057143Y-62374354D02*
X96114286Y-62488640D01*
X96114286Y-62488640D02*
X96228571Y-62545782D01*
X96228571Y-62545782D02*
X96400000Y-62545782D01*
X96400000Y-62545782D02*
X96514286Y-62488640D01*
X96514286Y-62488640D02*
X96571429Y-62431497D01*
X97142857Y-61745782D02*
X97142857Y-62945782D01*
X97142857Y-61802925D02*
X97257143Y-61745782D01*
X97257143Y-61745782D02*
X97485714Y-61745782D01*
X97485714Y-61745782D02*
X97600000Y-61802925D01*
X97600000Y-61802925D02*
X97657143Y-61860068D01*
X97657143Y-61860068D02*
X97714285Y-61974354D01*
X97714285Y-61974354D02*
X97714285Y-62317211D01*
X97714285Y-62317211D02*
X97657143Y-62431497D01*
X97657143Y-62431497D02*
X97600000Y-62488640D01*
X97600000Y-62488640D02*
X97485714Y-62545782D01*
X97485714Y-62545782D02*
X97257143Y-62545782D01*
X97257143Y-62545782D02*
X97142857Y-62488640D01*
X99142857Y-61917211D02*
X99542857Y-61917211D01*
X99714285Y-62545782D02*
X99142857Y-62545782D01*
X99142857Y-62545782D02*
X99142857Y-61345782D01*
X99142857Y-61345782D02*
X99714285Y-61345782D01*
X100399999Y-62545782D02*
X100285714Y-62488640D01*
X100285714Y-62488640D02*
X100228571Y-62374354D01*
X100228571Y-62374354D02*
X100228571Y-61345782D01*
X101314285Y-62488640D02*
X101199999Y-62545782D01*
X101199999Y-62545782D02*
X100971428Y-62545782D01*
X100971428Y-62545782D02*
X100857142Y-62488640D01*
X100857142Y-62488640D02*
X100799999Y-62374354D01*
X100799999Y-62374354D02*
X100799999Y-61917211D01*
X100799999Y-61917211D02*
X100857142Y-61802925D01*
X100857142Y-61802925D02*
X100971428Y-61745782D01*
X100971428Y-61745782D02*
X101199999Y-61745782D01*
X101199999Y-61745782D02*
X101314285Y-61802925D01*
X101314285Y-61802925D02*
X101371428Y-61917211D01*
X101371428Y-61917211D02*
X101371428Y-62031497D01*
X101371428Y-62031497D02*
X100799999Y-62145782D01*
X102399999Y-62488640D02*
X102285713Y-62545782D01*
X102285713Y-62545782D02*
X102057141Y-62545782D01*
X102057141Y-62545782D02*
X101942856Y-62488640D01*
X101942856Y-62488640D02*
X101885713Y-62431497D01*
X101885713Y-62431497D02*
X101828570Y-62317211D01*
X101828570Y-62317211D02*
X101828570Y-61974354D01*
X101828570Y-61974354D02*
X101885713Y-61860068D01*
X101885713Y-61860068D02*
X101942856Y-61802925D01*
X101942856Y-61802925D02*
X102057141Y-61745782D01*
X102057141Y-61745782D02*
X102285713Y-61745782D01*
X102285713Y-61745782D02*
X102399999Y-61802925D01*
X102742855Y-61745782D02*
X103199998Y-61745782D01*
X102914284Y-61345782D02*
X102914284Y-62374354D01*
X102914284Y-62374354D02*
X102971427Y-62488640D01*
X102971427Y-62488640D02*
X103085712Y-62545782D01*
X103085712Y-62545782D02*
X103199998Y-62545782D01*
X103599998Y-62545782D02*
X103599998Y-61745782D01*
X103599998Y-61974354D02*
X103657141Y-61860068D01*
X103657141Y-61860068D02*
X103714284Y-61802925D01*
X103714284Y-61802925D02*
X103828569Y-61745782D01*
X103828569Y-61745782D02*
X103942855Y-61745782D01*
X104514283Y-62545782D02*
X104399998Y-62488640D01*
X104399998Y-62488640D02*
X104342855Y-62431497D01*
X104342855Y-62431497D02*
X104285712Y-62317211D01*
X104285712Y-62317211D02*
X104285712Y-61974354D01*
X104285712Y-61974354D02*
X104342855Y-61860068D01*
X104342855Y-61860068D02*
X104399998Y-61802925D01*
X104399998Y-61802925D02*
X104514283Y-61745782D01*
X104514283Y-61745782D02*
X104685712Y-61745782D01*
X104685712Y-61745782D02*
X104799998Y-61802925D01*
X104799998Y-61802925D02*
X104857141Y-61860068D01*
X104857141Y-61860068D02*
X104914283Y-61974354D01*
X104914283Y-61974354D02*
X104914283Y-62317211D01*
X104914283Y-62317211D02*
X104857141Y-62431497D01*
X104857141Y-62431497D02*
X104799998Y-62488640D01*
X104799998Y-62488640D02*
X104685712Y-62545782D01*
X104685712Y-62545782D02*
X104514283Y-62545782D01*
X105428569Y-61745782D02*
X105428569Y-62545782D01*
X105428569Y-61860068D02*
X105485712Y-61802925D01*
X105485712Y-61802925D02*
X105599997Y-61745782D01*
X105599997Y-61745782D02*
X105771426Y-61745782D01*
X105771426Y-61745782D02*
X105885712Y-61802925D01*
X105885712Y-61802925D02*
X105942855Y-61917211D01*
X105942855Y-61917211D02*
X105942855Y-62545782D01*
X106514283Y-62545782D02*
X106514283Y-61745782D01*
X106514283Y-61345782D02*
X106457140Y-61402925D01*
X106457140Y-61402925D02*
X106514283Y-61460068D01*
X106514283Y-61460068D02*
X106571426Y-61402925D01*
X106571426Y-61402925D02*
X106514283Y-61345782D01*
X106514283Y-61345782D02*
X106514283Y-61460068D01*
X107599998Y-62488640D02*
X107485712Y-62545782D01*
X107485712Y-62545782D02*
X107257140Y-62545782D01*
X107257140Y-62545782D02*
X107142855Y-62488640D01*
X107142855Y-62488640D02*
X107085712Y-62431497D01*
X107085712Y-62431497D02*
X107028569Y-62317211D01*
X107028569Y-62317211D02*
X107028569Y-61974354D01*
X107028569Y-61974354D02*
X107085712Y-61860068D01*
X107085712Y-61860068D02*
X107142855Y-61802925D01*
X107142855Y-61802925D02*
X107257140Y-61745782D01*
X107257140Y-61745782D02*
X107485712Y-61745782D01*
X107485712Y-61745782D02*
X107599998Y-61802925D01*
X108057140Y-62488640D02*
X108171426Y-62545782D01*
X108171426Y-62545782D02*
X108399997Y-62545782D01*
X108399997Y-62545782D02*
X108514283Y-62488640D01*
X108514283Y-62488640D02*
X108571426Y-62374354D01*
X108571426Y-62374354D02*
X108571426Y-62317211D01*
X108571426Y-62317211D02*
X108514283Y-62202925D01*
X108514283Y-62202925D02*
X108399997Y-62145782D01*
X108399997Y-62145782D02*
X108228569Y-62145782D01*
X108228569Y-62145782D02*
X108114283Y-62088640D01*
X108114283Y-62088640D02*
X108057140Y-61974354D01*
X108057140Y-61974354D02*
X108057140Y-61917211D01*
X108057140Y-61917211D02*
X108114283Y-61802925D01*
X108114283Y-61802925D02*
X108228569Y-61745782D01*
X108228569Y-61745782D02*
X108399997Y-61745782D01*
X108399997Y-61745782D02*
X108514283Y-61802925D01*
D12*
X97119048Y-69000601D02*
X96385715Y-67952982D01*
X95861905Y-69000601D02*
X95861905Y-66800601D01*
X95861905Y-66800601D02*
X96700000Y-66800601D01*
X96700000Y-66800601D02*
X96909524Y-66905363D01*
X96909524Y-66905363D02*
X97014286Y-67010125D01*
X97014286Y-67010125D02*
X97119048Y-67219649D01*
X97119048Y-67219649D02*
X97119048Y-67533935D01*
X97119048Y-67533935D02*
X97014286Y-67743459D01*
X97014286Y-67743459D02*
X96909524Y-67848220D01*
X96909524Y-67848220D02*
X96700000Y-67952982D01*
X96700000Y-67952982D02*
X95861905Y-67952982D01*
X98900000Y-68895840D02*
X98690476Y-69000601D01*
X98690476Y-69000601D02*
X98271429Y-69000601D01*
X98271429Y-69000601D02*
X98061905Y-68895840D01*
X98061905Y-68895840D02*
X97957143Y-68686316D01*
X97957143Y-68686316D02*
X97957143Y-67848220D01*
X97957143Y-67848220D02*
X98061905Y-67638697D01*
X98061905Y-67638697D02*
X98271429Y-67533935D01*
X98271429Y-67533935D02*
X98690476Y-67533935D01*
X98690476Y-67533935D02*
X98900000Y-67638697D01*
X98900000Y-67638697D02*
X99004762Y-67848220D01*
X99004762Y-67848220D02*
X99004762Y-68057744D01*
X99004762Y-68057744D02*
X97957143Y-68267268D01*
X99738095Y-67533935D02*
X100261905Y-69000601D01*
X100261905Y-69000601D02*
X100785714Y-67533935D01*
X103195237Y-68372030D02*
X104242856Y-68372030D01*
X102985713Y-69000601D02*
X103719047Y-66800601D01*
X103719047Y-66800601D02*
X104452380Y-69000601D01*
D14*
X97428572Y-71325085D02*
X97500000Y-71253657D01*
X97500000Y-71253657D02*
X97642858Y-71182228D01*
X97642858Y-71182228D02*
X98000000Y-71182228D01*
X98000000Y-71182228D02*
X98142858Y-71253657D01*
X98142858Y-71253657D02*
X98214286Y-71325085D01*
X98214286Y-71325085D02*
X98285715Y-71467942D01*
X98285715Y-71467942D02*
X98285715Y-71610800D01*
X98285715Y-71610800D02*
X98214286Y-71825085D01*
X98214286Y-71825085D02*
X97357143Y-72682228D01*
X97357143Y-72682228D02*
X98285715Y-72682228D01*
X99214286Y-71182228D02*
X99357143Y-71182228D01*
X99357143Y-71182228D02*
X99500000Y-71253657D01*
X99500000Y-71253657D02*
X99571429Y-71325085D01*
X99571429Y-71325085D02*
X99642857Y-71467942D01*
X99642857Y-71467942D02*
X99714286Y-71753657D01*
X99714286Y-71753657D02*
X99714286Y-72110800D01*
X99714286Y-72110800D02*
X99642857Y-72396514D01*
X99642857Y-72396514D02*
X99571429Y-72539371D01*
X99571429Y-72539371D02*
X99500000Y-72610800D01*
X99500000Y-72610800D02*
X99357143Y-72682228D01*
X99357143Y-72682228D02*
X99214286Y-72682228D01*
X99214286Y-72682228D02*
X99071429Y-72610800D01*
X99071429Y-72610800D02*
X99000000Y-72539371D01*
X99000000Y-72539371D02*
X98928571Y-72396514D01*
X98928571Y-72396514D02*
X98857143Y-72110800D01*
X98857143Y-72110800D02*
X98857143Y-71753657D01*
X98857143Y-71753657D02*
X98928571Y-71467942D01*
X98928571Y-71467942D02*
X99000000Y-71325085D01*
X99000000Y-71325085D02*
X99071429Y-71253657D01*
X99071429Y-71253657D02*
X99214286Y-71182228D01*
X100285714Y-71325085D02*
X100357142Y-71253657D01*
X100357142Y-71253657D02*
X100500000Y-71182228D01*
X100500000Y-71182228D02*
X100857142Y-71182228D01*
X100857142Y-71182228D02*
X101000000Y-71253657D01*
X101000000Y-71253657D02*
X101071428Y-71325085D01*
X101071428Y-71325085D02*
X101142857Y-71467942D01*
X101142857Y-71467942D02*
X101142857Y-71610800D01*
X101142857Y-71610800D02*
X101071428Y-71825085D01*
X101071428Y-71825085D02*
X100214285Y-72682228D01*
X100214285Y-72682228D02*
X101142857Y-72682228D01*
X102428571Y-71182228D02*
X102142856Y-71182228D01*
X102142856Y-71182228D02*
X101999999Y-71253657D01*
X101999999Y-71253657D02*
X101928571Y-71325085D01*
X101928571Y-71325085D02*
X101785713Y-71539371D01*
X101785713Y-71539371D02*
X101714285Y-71825085D01*
X101714285Y-71825085D02*
X101714285Y-72396514D01*
X101714285Y-72396514D02*
X101785713Y-72539371D01*
X101785713Y-72539371D02*
X101857142Y-72610800D01*
X101857142Y-72610800D02*
X101999999Y-72682228D01*
X101999999Y-72682228D02*
X102285713Y-72682228D01*
X102285713Y-72682228D02*
X102428571Y-72610800D01*
X102428571Y-72610800D02*
X102499999Y-72539371D01*
X102499999Y-72539371D02*
X102571428Y-72396514D01*
X102571428Y-72396514D02*
X102571428Y-72039371D01*
X102571428Y-72039371D02*
X102499999Y-71896514D01*
X102499999Y-71896514D02*
X102428571Y-71825085D01*
X102428571Y-71825085D02*
X102285713Y-71753657D01*
X102285713Y-71753657D02*
X101999999Y-71753657D01*
X101999999Y-71753657D02*
X101857142Y-71825085D01*
X101857142Y-71825085D02*
X101785713Y-71896514D01*
X101785713Y-71896514D02*
X101714285Y-72039371D01*
D10*
X24716666Y-4804819D02*
X24716666Y-5519104D01*
X24716666Y-5519104D02*
X24669047Y-5661961D01*
X24669047Y-5661961D02*
X24573809Y-5757200D01*
X24573809Y-5757200D02*
X24430952Y-5804819D01*
X24430952Y-5804819D02*
X24335714Y-5804819D01*
X25716666Y-5804819D02*
X25145238Y-5804819D01*
X25430952Y-5804819D02*
X25430952Y-4804819D01*
X25430952Y-4804819D02*
X25335714Y-4947676D01*
X25335714Y-4947676D02*
X25240476Y-5042914D01*
X25240476Y-5042914D02*
X25145238Y-5090533D01*
X54716666Y-4804819D02*
X54716666Y-5519104D01*
X54716666Y-5519104D02*
X54669047Y-5661961D01*
X54669047Y-5661961D02*
X54573809Y-5757200D01*
X54573809Y-5757200D02*
X54430952Y-5804819D01*
X54430952Y-5804819D02*
X54335714Y-5804819D01*
X55097619Y-4804819D02*
X55716666Y-4804819D01*
X55716666Y-4804819D02*
X55383333Y-5185771D01*
X55383333Y-5185771D02*
X55526190Y-5185771D01*
X55526190Y-5185771D02*
X55621428Y-5233390D01*
X55621428Y-5233390D02*
X55669047Y-5281009D01*
X55669047Y-5281009D02*
X55716666Y-5376247D01*
X55716666Y-5376247D02*
X55716666Y-5614342D01*
X55716666Y-5614342D02*
X55669047Y-5709580D01*
X55669047Y-5709580D02*
X55621428Y-5757200D01*
X55621428Y-5757200D02*
X55526190Y-5804819D01*
X55526190Y-5804819D02*
X55240476Y-5804819D01*
X55240476Y-5804819D02*
X55145238Y-5757200D01*
X55145238Y-5757200D02*
X55097619Y-5709580D01*
X84716666Y-4804819D02*
X84716666Y-5519104D01*
X84716666Y-5519104D02*
X84669047Y-5661961D01*
X84669047Y-5661961D02*
X84573809Y-5757200D01*
X84573809Y-5757200D02*
X84430952Y-5804819D01*
X84430952Y-5804819D02*
X84335714Y-5804819D01*
X85145238Y-4900057D02*
X85192857Y-4852438D01*
X85192857Y-4852438D02*
X85288095Y-4804819D01*
X85288095Y-4804819D02*
X85526190Y-4804819D01*
X85526190Y-4804819D02*
X85621428Y-4852438D01*
X85621428Y-4852438D02*
X85669047Y-4900057D01*
X85669047Y-4900057D02*
X85716666Y-4995295D01*
X85716666Y-4995295D02*
X85716666Y-5090533D01*
X85716666Y-5090533D02*
X85669047Y-5233390D01*
X85669047Y-5233390D02*
X85097619Y-5804819D01*
X85097619Y-5804819D02*
X85716666Y-5804819D01*
X114716666Y-4804819D02*
X114716666Y-5519104D01*
X114716666Y-5519104D02*
X114669047Y-5661961D01*
X114669047Y-5661961D02*
X114573809Y-5757200D01*
X114573809Y-5757200D02*
X114430952Y-5804819D01*
X114430952Y-5804819D02*
X114335714Y-5804819D01*
X115621428Y-5138152D02*
X115621428Y-5804819D01*
X115383333Y-4757200D02*
X115145238Y-5471485D01*
X115145238Y-5471485D02*
X115764285Y-5471485D01*
X59666666Y-31684819D02*
X59666666Y-32399104D01*
X59666666Y-32399104D02*
X59619047Y-32541961D01*
X59619047Y-32541961D02*
X59523809Y-32637200D01*
X59523809Y-32637200D02*
X59380952Y-32684819D01*
X59380952Y-32684819D02*
X59285714Y-32684819D01*
X60619047Y-31684819D02*
X60142857Y-31684819D01*
X60142857Y-31684819D02*
X60095238Y-32161009D01*
X60095238Y-32161009D02*
X60142857Y-32113390D01*
X60142857Y-32113390D02*
X60238095Y-32065771D01*
X60238095Y-32065771D02*
X60476190Y-32065771D01*
X60476190Y-32065771D02*
X60571428Y-32113390D01*
X60571428Y-32113390D02*
X60619047Y-32161009D01*
X60619047Y-32161009D02*
X60666666Y-32256247D01*
X60666666Y-32256247D02*
X60666666Y-32494342D01*
X60666666Y-32494342D02*
X60619047Y-32589580D01*
X60619047Y-32589580D02*
X60571428Y-32637200D01*
X60571428Y-32637200D02*
X60476190Y-32684819D01*
X60476190Y-32684819D02*
X60238095Y-32684819D01*
X60238095Y-32684819D02*
X60142857Y-32637200D01*
X60142857Y-32637200D02*
X60095238Y-32589580D01*
X94666666Y-31684819D02*
X94666666Y-32399104D01*
X94666666Y-32399104D02*
X94619047Y-32541961D01*
X94619047Y-32541961D02*
X94523809Y-32637200D01*
X94523809Y-32637200D02*
X94380952Y-32684819D01*
X94380952Y-32684819D02*
X94285714Y-32684819D01*
X95571428Y-31684819D02*
X95380952Y-31684819D01*
X95380952Y-31684819D02*
X95285714Y-31732438D01*
X95285714Y-31732438D02*
X95238095Y-31780057D01*
X95238095Y-31780057D02*
X95142857Y-31922914D01*
X95142857Y-31922914D02*
X95095238Y-32113390D01*
X95095238Y-32113390D02*
X95095238Y-32494342D01*
X95095238Y-32494342D02*
X95142857Y-32589580D01*
X95142857Y-32589580D02*
X95190476Y-32637200D01*
X95190476Y-32637200D02*
X95285714Y-32684819D01*
X95285714Y-32684819D02*
X95476190Y-32684819D01*
X95476190Y-32684819D02*
X95571428Y-32637200D01*
X95571428Y-32637200D02*
X95619047Y-32589580D01*
X95619047Y-32589580D02*
X95666666Y-32494342D01*
X95666666Y-32494342D02*
X95666666Y-32256247D01*
X95666666Y-32256247D02*
X95619047Y-32161009D01*
X95619047Y-32161009D02*
X95571428Y-32113390D01*
X95571428Y-32113390D02*
X95476190Y-32065771D01*
X95476190Y-32065771D02*
X95285714Y-32065771D01*
X95285714Y-32065771D02*
X95190476Y-32113390D01*
X95190476Y-32113390D02*
X95142857Y-32161009D01*
X95142857Y-32161009D02*
X95095238Y-32256247D01*
X148866666Y-90094819D02*
X148866666Y-90809104D01*
X148866666Y-90809104D02*
X148819047Y-90951961D01*
X148819047Y-90951961D02*
X148723809Y-91047200D01*
X148723809Y-91047200D02*
X148580952Y-91094819D01*
X148580952Y-91094819D02*
X148485714Y-91094819D01*
X149247619Y-90094819D02*
X149914285Y-90094819D01*
X149914285Y-90094819D02*
X149485714Y-91094819D01*
D15*
%TO.C,J1*%
X17460000Y-6190000D02*
X32700000Y-6190000D01*
X17460000Y-12540000D02*
X32700000Y-12540000D01*
X17460000Y-13810000D02*
X17460000Y-6190000D01*
X17460000Y-13810000D02*
X32700000Y-13810000D01*
X32700000Y-13810000D02*
X32700000Y-6190000D01*
%TO.C,J3*%
X47460000Y-6190000D02*
X62700000Y-6190000D01*
X47460000Y-12540000D02*
X62700000Y-12540000D01*
X47460000Y-13810000D02*
X47460000Y-6190000D01*
X47460000Y-13810000D02*
X62700000Y-13810000D01*
X62700000Y-13810000D02*
X62700000Y-6190000D01*
%TO.C,J2*%
X77460000Y-6190000D02*
X92700000Y-6190000D01*
X77460000Y-12540000D02*
X92700000Y-12540000D01*
X77460000Y-13810000D02*
X77460000Y-6190000D01*
X77460000Y-13810000D02*
X92700000Y-13810000D01*
X92700000Y-13810000D02*
X92700000Y-6190000D01*
%TO.C,J4*%
X107460000Y-6190000D02*
X122700000Y-6190000D01*
X107460000Y-12540000D02*
X122700000Y-12540000D01*
X107460000Y-13810000D02*
X107460000Y-6190000D01*
X107460000Y-13810000D02*
X122700000Y-13810000D01*
X122700000Y-13810000D02*
X122700000Y-6190000D01*
%TO.C,J5*%
X58670000Y-36270000D02*
X58670000Y-43950000D01*
X58670000Y-36270000D02*
X61330000Y-36270000D01*
X58670000Y-43950000D02*
X61330000Y-43950000D01*
X60000000Y-33670000D02*
X61330000Y-33670000D01*
X61330000Y-33670000D02*
X61330000Y-35000000D01*
X61330000Y-36270000D02*
X61330000Y-43950000D01*
%TO.C,J6*%
X93670000Y-36270000D02*
X93670000Y-43950000D01*
X93670000Y-36270000D02*
X96330000Y-36270000D01*
X93670000Y-43950000D02*
X96330000Y-43950000D01*
X95000000Y-33670000D02*
X96330000Y-33670000D01*
X96330000Y-33670000D02*
X96330000Y-35000000D01*
X96330000Y-36270000D02*
X96330000Y-43950000D01*
%TO.C,J7*%
X151280000Y-81500000D02*
X150780000Y-81000000D01*
X151280000Y-80500000D02*
X151280000Y-81500000D01*
X150780000Y-81000000D02*
X151280000Y-80500000D01*
X150670000Y-89500000D02*
X150670000Y-85030000D01*
X150670000Y-89500000D02*
X138270000Y-89500000D01*
X150670000Y-76100000D02*
X150670000Y-81570000D01*
X138270000Y-89500000D02*
X138270000Y-85030000D01*
X138270000Y-81570000D02*
X138270000Y-76100000D01*
X138270000Y-76100000D02*
X150670000Y-76100000D01*
%TD*%
M02*
