M48
; DRILL file {KiCad 9.0.1} date 2026-08-09T13:22:02+0200
; FORMAT={-:-/ absolute / metric / decimal}
; #@! TF.CreationDate,2026-08-09T13:22:02+02:00
; #@! TF.GenerationSoftware,Kicad,Pcbnew,9.0.1
; #@! TF.FileFunction,Plated,1,2,PTH
FMAT,2
METRIC
; #@! TA.AperFunction,Plated,PTH,ViaDrill
T1C0.300
; #@! TA.AperFunction,Plated,PTH,ComponentDrill
T2C0.900
; #@! TA.AperFunction,Plated,PTH,ComponentDrill
T3C1.000
; #@! TA.AperFunction,Plated,PTH,ComponentDrill
T4C1.520
%
G90
G05
T1
X10.0Y-20.0
X15.08Y-30.0
X20.16Y-32.0
X20.16Y-60.0
X93.0Y-42.62
X97.0Y-35.0
X99.0Y-40.08
X101.0Y-37.54
X143.46Y-12.0
T2
X143.46Y-36.02
X143.46Y-38.06
X146.0Y-35.0
X146.0Y-37.04
T3
X60.0Y-35.0
X60.0Y-37.54
X60.0Y-40.08
X60.0Y-42.62
X95.0Y-35.0
X95.0Y-37.54
X95.0Y-40.08
X95.0Y-42.62
T4
X10.0Y-15.0
X10.0Y-35.0
X10.0Y-55.0
X10.0Y-75.0
X15.08Y-15.0
X15.08Y-35.0
X15.08Y-55.0
X15.08Y-75.0
X20.16Y-15.0
X20.16Y-35.0
X20.16Y-55.0
X20.16Y-75.0
M30
